<svg xmlns="http://www.w3.org/2000/svg" xmlns:xlink="http://www.w3.org/1999/xlink" version="1.1" x="0px" y="0px" viewBox="0 0 100 125" style="enable-background:new 0 0 100 100;" xml:space="preserve">
    <path d="M89,51c-1.3222656,0-1.9726562-0.7338867-2.796875-1.6630859C85.28125,48.2958984,84.1328125,47,81.9101562,47  s-3.3710938,1.2958984-4.2929688,2.3369141C76.7929688,50.2661133,76.1425781,51,74.8203125,51  c-1.3212891,0-1.9716797-0.7338867-2.7939453-1.6630859C71.1035156,48.2958984,69.9560547,47,67.734375,47  c-2.2226562,0-3.3710938,1.2958984-4.2929688,2.3369141C62.6171875,50.2661133,61.9677734,51,60.6455078,51  s-1.9726562-0.7338867-2.796875-1.6635742C56.9267578,48.2954102,55.7783203,47,53.5566406,47  c-2.2226562,0-3.3710938,1.2958984-4.2929688,2.3369141C48.4394531,50.2661133,47.7890625,51,46.4667969,51  s-1.9726562-0.7338867-2.796875-1.6630859C42.7470703,48.2958984,41.5986328,47,39.3759766,47  s-3.3710938,1.2954102-4.2939453,2.3364258C34.2578125,50.265625,33.6064453,51,32.2832031,51  s-1.9736328-0.7338867-2.7978516-1.6635742C28.5625,48.2954102,27.4150391,47,25.1923828,47  c-2.2246094,0-3.3730469,1.2954102-4.296875,2.3364258C20.0712891,50.2661133,19.4199219,51,18.0957031,51  s-1.9755859-0.7338867-2.7998047-1.6635742C14.3730469,48.2954102,13.2236328,47,11,47c-0.5527344,0-1,0.4477539-1,1  s0.4472656,1,1,1c1.3242188,0,1.9755859,0.7338867,2.7998047,1.6635742C14.7226562,51.7045898,15.8720703,53,18.0957031,53  s3.3730469-1.2954102,4.2958984-2.3364258C23.2158203,49.734375,23.8671875,49,25.1923828,49  c1.3222656,0,1.9726562,0.7338867,2.796875,1.6630859C28.9121094,51.7041016,30.0605469,53,32.2832031,53  c2.2236328,0,3.3720703-1.2958984,4.2949219-2.3369141C37.4023438,49.7338867,38.0527344,49,39.3759766,49  s1.9736328,0.7338867,2.7978516,1.6635742C43.0966797,51.7045898,44.2441406,53,46.4667969,53  s3.3710938-1.2958984,4.2929688-2.3369141C51.5839844,49.7338867,52.234375,49,53.5566406,49  s1.9716797,0.7338867,2.7958984,1.6630859C57.2744141,51.7041016,58.4228516,53,60.6455078,53  c2.2216797,0,3.3701172-1.2954102,4.2919922-2.3364258C65.7617188,49.7338867,66.4121094,49,67.734375,49  c1.3212891,0,1.9716797,0.7338867,2.7939453,1.6630859C71.4511719,51.7041016,72.5986328,53,74.8203125,53  c2.2226562,0,3.3710938-1.2958984,4.2929688-2.3369141C79.9375,49.7338867,80.5878906,49,81.9101562,49  s1.9726562,0.7338867,2.796875,1.6630859C85.6289062,51.7041016,86.7773438,53,89,53c0.5527344,0,1-0.4477539,1-1  S89.5527344,51,89,51z" />
    <text x="0" y="115" fill="#000000" font-size="5px" font-weight="bold" font-family="'Helvetica Neue', Helvetica, Arial-Unicode, Arial, Sans-serif">Created by Made by Made</text>
    <text x="0" y="120" fill="#000000" font-size="5px" font-weight="bold" font-family="'Helvetica Neue', Helvetica, Arial-Unicode, Arial, Sans-serif">from the Noun Project</text>
</svg>