<?xml version="1.0" encoding="UTF-8" standalone="no"?><!-- Generator: Gravit.io --><svg xmlns="http://www.w3.org/2000/svg" xmlns:xlink="http://www.w3.org/1999/xlink" style="isolation:isolate" viewBox="542.552 240 1229.621 477" width="1229.621pt" height="477pt"><defs><clipPath id="_clipPath_t8RLAam0559Yk0BD3RvjWf5cehAxdbo7"><rect x="542.552" y="240" width="1229.621" height="477"/></clipPath></defs><g clip-path="url(#_clipPath_t8RLAam0559Yk0BD3RvjWf5cehAxdbo7)"><path d=" M 933.31 240 L 555 240 L 555 305.793 L 933.31 305.793 L 933.31 240 Z  M 735.931 322.241 L 555 322.241 L 555 388.034 L 670.138 388.034 L 670.138 717 L 735.931 717 L 735.931 322.241 Z  M 752.379 322.241 L 752.379 717 L 818.172 717 L 818.172 388.034 L 933.31 388.034 L 933.31 322.241 L 752.379 322.241 Z  M 1311.621 388.034 L 1311.621 388.034 L 1311.621 568.966 L 1311.621 568.966 Q 1311.621 717 1163.586 717 L 1163.586 717 L 966.207 717 L 966.207 404.483 L 1032 404.483 L 1032 651.207 L 1163.586 651.207 L 1163.586 651.207 Q 1245.828 651.207 1245.828 568.966 L 1245.828 568.966 L 1245.828 388.034 L 1245.828 388.034 Q 1245.828 305.793 1163.586 305.793 L 1163.586 305.793 L 966.207 305.793 L 966.207 240 L 1163.586 240 L 1163.586 240 Q 1311.621 240 1311.621 388.034 Z  M 1229.379 388.034 L 1229.379 388.034 L 1229.379 568.966 L 1229.379 568.966 Q 1229.379 634.759 1163.586 634.759 L 1163.586 634.759 L 1048.448 634.759 L 1048.448 404.483 L 1114.241 404.483 L 1114.241 568.966 L 1147.138 568.966 L 1147.138 568.966 Q 1163.586 568.966 1163.586 552.517 L 1163.586 552.517 L 1163.586 404.483 L 1163.586 404.483 Q 1163.586 388.034 1147.138 388.034 L 1147.138 388.034 L 966.207 388.034 L 966.207 322.241 L 1163.586 322.241 L 1163.586 322.241 Q 1229.379 322.241 1229.379 388.034 Z  M 1410.31 717 L 1344.517 717 L 1344.517 322.241 L 1344.517 322.241 Q 1344.517 240 1426.759 240 L 1426.759 240 L 1426.759 240 Q 1476.103 240 1492.552 259.738 L 1492.552 259.738 L 1613.172 407.772 L 1613.172 407.772 Q 1624.138 420.931 1624.138 404.483 L 1624.138 404.483 L 1624.138 240 L 1689.931 240 L 1689.931 587.607 L 1689.931 587.607 Q 1692.124 627.083 1678.966 607.345 L 1678.966 607.345 L 1444.303 322.241 L 1444.303 322.241 Q 1431.145 305.793 1419.631 305.793 L 1419.631 305.793 L 1419.631 305.793 Q 1408.117 305.793 1410.31 338.69 L 1410.31 338.69 L 1410.31 717 Z  M 1706.379 240 L 1772.172 240 L 1772.172 634.759 L 1772.172 634.759 Q 1772.172 717 1689.931 717 L 1689.931 717 L 1689.931 717 Q 1640.586 717 1624.138 697.262 L 1624.138 697.262 L 1503.517 549.228 L 1503.517 549.228 Q 1492.552 536.069 1492.552 552.517 L 1492.552 552.517 L 1492.552 717 L 1426.759 717 L 1426.759 369.393 L 1426.759 369.393 Q 1424.566 329.917 1437.724 349.655 L 1437.724 349.655 L 1672.386 634.759 L 1672.386 634.759 Q 1685.545 651.207 1697.059 651.207 L 1697.059 651.207 L 1697.059 651.207 Q 1708.572 651.207 1706.379 618.31 L 1706.379 618.31 L 1706.379 240 Z " fill="rgb(0,0,0)"/><path d=" M 920.862 240 L 542.552 240 L 542.552 305.793 L 920.862 305.793 L 920.862 240 Z  M 723.483 322.241 L 542.552 322.241 L 542.552 388.034 L 657.69 388.034 L 657.69 717 L 723.483 717 L 723.483 322.241 Z  M 739.931 322.241 L 739.931 717 L 805.724 717 L 805.724 388.034 L 920.862 388.034 L 920.862 322.241 L 739.931 322.241 Z  M 1299.172 388.034 L 1299.172 388.034 L 1299.172 568.966 L 1299.172 568.966 Q 1299.172 717 1151.138 717 L 1151.138 717 L 953.759 717 L 953.759 404.483 L 1019.552 404.483 L 1019.552 651.207 L 1151.138 651.207 L 1151.138 651.207 Q 1233.379 651.207 1233.379 568.966 L 1233.379 568.966 L 1233.379 388.034 L 1233.379 388.034 Q 1233.379 305.793 1151.138 305.793 L 1151.138 305.793 L 953.759 305.793 L 953.759 240 L 1151.138 240 L 1151.138 240 Q 1299.172 240 1299.172 388.034 Z  M 1216.931 388.034 L 1216.931 388.034 L 1216.931 568.966 L 1216.931 568.966 Q 1216.931 634.759 1151.138 634.759 L 1151.138 634.759 L 1036 634.759 L 1036 404.483 L 1101.793 404.483 L 1101.793 568.966 L 1134.69 568.966 L 1134.69 568.966 Q 1151.138 568.966 1151.138 552.517 L 1151.138 552.517 L 1151.138 404.483 L 1151.138 404.483 Q 1151.138 388.034 1134.69 388.034 L 1134.69 388.034 L 953.759 388.034 L 953.759 322.241 L 1151.138 322.241 L 1151.138 322.241 Q 1216.931 322.241 1216.931 388.034 Z  M 1397.862 717 L 1332.069 717 L 1332.069 322.241 L 1332.069 322.241 Q 1332.069 240 1414.31 240 L 1414.31 240 L 1414.31 240 Q 1463.655 240 1480.103 259.738 L 1480.103 259.738 L 1600.724 407.772 L 1600.724 407.772 Q 1611.69 420.931 1611.69 404.483 L 1611.69 404.483 L 1611.69 240 L 1677.483 240 L 1677.483 587.607 L 1677.483 587.607 Q 1679.676 627.083 1666.517 607.345 L 1666.517 607.345 L 1431.855 322.241 L 1431.855 322.241 Q 1418.697 305.793 1407.183 305.793 L 1407.183 305.793 L 1407.183 305.793 Q 1395.669 305.793 1397.862 338.69 L 1397.862 338.69 L 1397.862 717 Z  M 1693.931 240 L 1759.724 240 L 1759.724 634.759 L 1759.724 634.759 Q 1759.724 717 1677.483 717 L 1677.483 717 L 1677.483 717 Q 1628.138 717 1611.69 697.262 L 1611.69 697.262 L 1491.069 549.228 L 1491.069 549.228 Q 1480.103 536.069 1480.103 552.517 L 1480.103 552.517 L 1480.103 717 L 1414.31 717 L 1414.31 369.393 L 1414.31 369.393 Q 1412.117 329.917 1425.276 349.655 L 1425.276 349.655 L 1659.938 634.759 L 1659.938 634.759 Q 1673.097 651.207 1684.61 651.207 L 1684.61 651.207 L 1684.61 651.207 Q 1696.124 651.207 1693.931 618.31 L 1693.931 618.31 L 1693.931 240 Z " fill="rgb(255,255,255)"/></g></svg>