<?xml version="1.0" encoding="UTF-8" standalone="no"?><!-- Generator: Gravit.io --><svg xmlns="http://www.w3.org/2000/svg" xmlns:xlink="http://www.w3.org/1999/xlink" style="isolation:isolate" viewBox="130.75 150.385 176.25 180.615" width="176.25pt" height="180.615pt"><defs><clipPath id="_clipPath_NON60EODAtGcWeuTFYN3G90Txvurb6qG"><rect x="130.75" y="150.385" width="176.25" height="180.615"/></clipPath></defs><g clip-path="url(#_clipPath_NON60EODAtGcWeuTFYN3G90Txvurb6qG)"><rect x="130.75" y="150.385" width="176.25" height="180.615" style="fill:rgb(0,0,0)" fill-opacity="0"/><path d=" M 153.668 195.675 L 146.029 185.307 L 152.577 150.385 L 160.216 150.385 L 165.127 154.204 L 179.86 156.933 L 218.057 150.385 L 256.253 156.933 L 271.532 154.204 L 277.534 150.385 L 286.265 150.385 L 291.176 185.307 L 284.082 195.675 L 291.176 203.314 L 289.539 210.954 L 307 239.874 L 301.543 264.429 L 298.269 258.972 L 297.178 272.614 L 289.539 284.618 L 289.539 277.525 L 280.262 290.075 L 274.26 292.803 L 274.26 286.255 L 267.166 296.623 L 254.616 298.806 L 247.522 314.63 L 247.522 321.724 L 218.057 331 L 189.682 321.724 L 189.682 314.63 L 182.588 298.806 L 170.038 296.623 L 162.944 286.255 L 162.944 292.803 L 155.851 290.075 L 148.211 278.616 L 147.12 284.618 L 140.026 272.614 L 140.026 258.972 L 135.115 264.429 L 130.75 239.874 L 146.029 210.954 L 147.12 203.314 L 153.668 195.675 Z  M 174.403 300.443 L 192.956 298.806 L 202.232 302.625 L 189.682 300.443 L 174.403 300.443 Z  M 174.403 306.445 L 191.865 304.262 L 203.324 307.536 L 189.682 307.536 L 174.403 306.445 Z  M 178.769 312.447 L 192.956 309.173 L 203.324 311.356 L 189.682 311.356 L 178.769 312.447 Z  M 262.801 300.443 L 246.431 298.806 L 234.426 302.625 L 249.705 301.534 L 262.801 300.443 Z  M 261.164 307.536 L 245.34 304.262 L 234.426 307.536 L 248.614 307.536 L 261.164 307.536 Z  M 234.426 311.356 L 245.34 309.173 L 258.981 312.447 L 247.522 311.356 L 234.426 311.356 Z  M 202.232 299.351 L 204.961 296.077 L 218.057 299.351 L 231.152 296.077 L 234.426 299.351 L 231.152 303.171 L 222.967 304.808 L 219.693 306.991 L 219.693 312.993 L 216.965 312.993 L 216.965 306.991 L 213.691 304.808 L 206.598 303.171 L 202.232 299.351 Z  M 202.232 321.724 L 203.324 318.45 L 212.6 318.45 L 218.057 319.541 L 222.967 318.45 L 232.789 319.541 L 234.426 321.724 L 219.693 326.635 L 202.232 321.724 Z  M 187.353 240.736 L 195.028 227.126 L 202.703 213.515 L 218.328 213.357 L 233.952 213.198 L 241.902 226.651 L 249.852 240.103 L 242.176 253.713 L 234.501 267.324 L 218.877 267.482 L 203.252 267.641 L 195.302 254.188 L 187.353 240.736 Z  M 200.171 240.882 L 204.765 232.735 L 209.359 224.589 L 218.711 224.494 L 228.063 224.399 L 232.821 232.451 L 237.579 240.503 L 232.985 248.649 L 228.391 256.796 L 219.039 256.89 L 209.687 256.985 L 204.929 248.934 L 200.171 240.882 Z " fill-rule="evenodd" fill="rgb(255,255,255)"/></g></svg>